# xmcd CD database file
#
# Track frame offsets:
#	150
#	16256
#	28437
#	38612
#	50623
#	62524
#	68466
#	80250
#	91655
#	103508
#	115277
#	126055
#	132163
#	144601
#	157603
#	166475
#	173508
#	182862
#	188193
#	199025
#	211656
#	224362
#	240192
#	251475
#	263224
#	275555
#	286670
#	297288
#	315830
#	325331
#
# Disc length: 4483 seconds
#
# Revision: 0
# Processed by: cddbd v1.5.1PL0 Copyright (c) Steve Scherf et al.
# Submitted via: CDex 1.51
#
DISCID=9811811e
DTITLE=The Beautiful Music Company - Country Waltzes
DYEAR=2004
DGENRE=Country
TTITLE0=Faded Love
TTITLE1=Mexicali Rose
TTITLE2=Shenandoah Waltz
TTITLE3=Allegheny Moon
TTITLE4=Beautiful Brown Eyes
TTITLE5=Put Your Little Foot
TTITLE6=Springtime In The Rockies
TTITLE7=Always
TTITLE8=Kentucky Waltz
TTITLE9=I Love You So Much It Hurts
TTITLE10=Are You Lonesome Tonight
TTITLE11=Beautiful Dreamer
TTITLE12=Down In The Valley
TTITLE13=Old Flames Can't Hold A Candle to You
TTITLE14=Tennessee Waltz
TTITLE15=Blue Moon Of Kentucky
TTITLE16=Goodnight Irene
TTITLE17=The Waltz You Saved For Me
TTITLE18=Beautiful Ohio
TTITLE19=Starlight Waltz
TTITLE20=Nobody's Darlin' But Mine
TTITLE21=Till I Waltz Again With You
TTITLE22=Missouri Waltz
TTITLE23=Twilight Waltz
TTITLE24=A Tear Fell
TTITLE25=Virginia Waltz
TTITLE26=Mom and Dad Waltz
TTITLE27=Texas Jole Blon
TTITLE28=Goodnight Waltz
TTITLE29=Waltz Across Texas
EXTD=YEAR: 2004
EXTT0=
EXTT1=
EXTT2=
EXTT3=
EXTT4=
EXTT5=
EXTT6=
EXTT7=
EXTT8=
EXTT9=
EXTT10=
EXTT11=
EXTT12=
EXTT13=
EXTT14=
EXTT15=
EXTT16=
EXTT17=
EXTT18=
EXTT19=
EXTT20=
EXTT21=
EXTT22=
EXTT23=
EXTT24=
EXTT25=
EXTT26=
EXTT27=
EXTT28=
EXTT29=
PLAYORDER=
